<svg xmlns="http://www.w3.org/2000/svg" viewBox="36 6 1818 365.5" width="1818" height="365.5" font-family="'Segoe UI', system-ui, sans-serif">
  <rect x="36" y="6" width="1818" height="365.5" fill="#ffffff"/>
  <defs>
    <marker id="ah0" markerWidth="9" markerHeight="9" refX="7.5" refY="4.5" orient="auto"><path d="M0,0 L9,4.5 L0,9 Z" fill="#1e1e1e"/></marker>
  </defs>
  <text x="60" y="52.4" text-anchor="start" font-family="'Segoe UI', system-ui, sans-serif" font-size="28" fill="#1e1e1e"><tspan x="60" dy="0">DWGLS Pipeline — MAP not COMPRESS</tspan></text>
  <rect x="60" y="200" width="170" height="90" rx="7.2" fill="#a5d8ff" stroke="#1e1e1e" stroke-width="2"/><text x="145" y="230.6" text-anchor="middle" font-family="'Segoe UI', system-ui, sans-serif" font-size="16" fill="#1e1e1e"><tspan x="145" dy="0">① Source</tspan><tspan x="145" dy="20">&lt;model&gt;.gguf</tspan><tspan x="145" dy="20">(any GGUF)</tspan></text>
  <rect x="300" y="200" width="190" height="90" rx="7.2" fill="#b2f2bb" stroke="#1e1e1e" stroke-width="2"/><text x="395" y="231.5" text-anchor="middle" font-family="'Segoe UI', system-ui, sans-serif" font-size="15" fill="#1e1e1e"><tspan x="395" dy="0">② Bake</tspan><tspan x="395" dy="18.75">(geometry encode)</tspan><tspan x="395" dy="18.75">tess-bake / tess-gguf-pack</tspan></text>
  <rect x="560" y="200" width="220" height="90" rx="7.2" fill="#ffd43b" stroke="#1e1e1e" stroke-width="2"/><text x="670" y="223.65" text-anchor="middle" font-family="'Segoe UI', system-ui, sans-serif" font-size="14" fill="#1e1e1e"><tspan x="670" dy="0">★ Field layer</tspan><tspan x="670" dy="17.5">18 tes × 8 cube × 144 = 20736</tspan><tspan x="670" dy="17.5">capo = 1 tesseract = 1152</tspan><tspan x="670" dy="17.5">stride-37 scatter · CRC-64</tspan></text>
  <rect x="850" y="200" width="190" height="90" rx="7.2" fill="#b2f2bb" stroke="#1e1e1e" stroke-width="2"/><text x="945" y="222.12" text-anchor="middle" font-family="'Segoe UI', system-ui, sans-serif" font-size="15" fill="#1e1e1e"><tspan x="945" dy="0">③ Container</tspan><tspan x="945" dy="18.75">.tess files →</tspan><tspan x="945" dy="18.75">&lt;model&gt;.tesspack</tspan><tspan x="945" dy="18.75">(single file)</tspan></text>
  <rect x="1110" y="200" width="200" height="90" rx="7.2" fill="#a5d8ff" stroke="#1e1e1e" stroke-width="2"/><text x="1210" y="223.65" text-anchor="middle" font-family="'Segoe UI', system-ui, sans-serif" font-size="14" fill="#1e1e1e"><tspan x="1210" dy="0">④ Serve paths</tspan><tspan x="1210" dy="17.5">tess-load / tess-stream</tspan><tspan x="1210" dy="17.5">tess-graft / tess-view</tspan><tspan x="1210" dy="17.5">tess-breathe (mmap RSS)</tspan></text>
  <rect x="1380" y="200" width="180" height="90" rx="7.2" fill="#d0bfff" stroke="#1e1e1e" stroke-width="2"/><text x="1470" y="240.6" text-anchor="middle" font-family="'Segoe UI', system-ui, sans-serif" font-size="16" fill="#1e1e1e"><tspan x="1470" dy="0">⑥ Inference</tspan><tspan x="1470" dy="20">llama.cpp (vulkan)</tspan></text>
  <rect x="1630" y="200" width="200" height="90" rx="7.2" fill="#ffc9c9" stroke="#1e1e1e" stroke-width="2"/><text x="1730" y="232.4" text-anchor="middle" font-family="'Segoe UI', system-ui, sans-serif" font-size="14" fill="#1e1e1e"><tspan x="1730" dy="0">⑦ Proof gates</tspan><tspan x="1730" dy="17.5">TIER1 122/122 · TIER2 4/4</tspan><tspan x="1730" dy="17.5">tesspack_verify · BITWISE 11/11</tspan></text>
  <rect x="1380" y="60" width="180" height="80" rx="6.4" fill="#b2f2bb" stroke="#1e1e1e" stroke-width="2"/><text x="1470" y="87.4" text-anchor="middle" font-family="'Segoe UI', system-ui, sans-serif" font-size="14" fill="#1e1e1e"><tspan x="1470" dy="0">⑤ MoE experts</tspan><tspan x="1470" dy="17.5">(same GGUF source)</tspan><tspan x="1470" dy="17.5">moe-bake → moe-stream / moe-route</tspan></text>
  <path d="M 230 245 L 300 245" fill="none" stroke="#1e1e1e" stroke-width="2" marker-end="url(#ah0)"/>
  <path d="M 490 245 L 560 245" fill="none" stroke="#1e1e1e" stroke-width="2" marker-end="url(#ah0)"/>
  <path d="M 780 245 L 850 245" fill="none" stroke="#1e1e1e" stroke-width="2" marker-end="url(#ah0)"/>
  <path d="M 1040 245 L 1110 245" fill="none" stroke="#1e1e1e" stroke-width="2" marker-end="url(#ah0)"/>
  <path d="M 1310 245 L 1380 245" fill="none" stroke="#1e1e1e" stroke-width="2" marker-end="url(#ah0)"/>
  <path d="M 1560 245 L 1630 245" fill="none" stroke="#1e1e1e" stroke-width="2" marker-end="url(#ah0)"/>
  <path d="M 1470 140 L 1470 200" fill="none" stroke="#1e1e1e" stroke-width="2" stroke-dasharray="6,4" marker-end="url(#ah0)"/>
  <text x="60" y="341.2" text-anchor="start" font-family="'Segoe UI', system-ui, sans-serif" font-size="14" fill="#495057"><tspan x="60" dy="0">All stages proven lossless (decode → compare every value). KIS timeline: enter ANYWHERE · forward = expand · backward = contract. No geometry computed — field is a template for mapping only.</tspan></text>
</svg>
